<?xml version="1.0" standalone="no"?><!DOCTYPE svg PUBLIC "-//W3C//DTD SVG 1.1//EN" "http://www.w3.org/Graphics/SVG/1.1/DTD/svg11.dtd"><svg width="200" height="200" viewBox="0 0 200 200" version="1.1" xmlns="http://www.w3.org/2000/svg" xmlns:xlink="http://www.w3.org/1999/xlink"><defs><style type="text/css"><![CDATA[

]]></style></defs><g class="transform-group"><g transform="scale(0.1953125, 0.1953125)"><path d="M881.344 709.632a87.424 87.424 0 0 1-87.296-87.296V448.512c0-48.128 39.168-87.296 87.296-87.296A142.72 142.72 0 0 1 1024 503.808v63.168c0 78.656-64 142.656-142.656 142.656z m0-284.416a23.36 23.36 0 0 0-23.296 23.296v173.824c0 12.864 10.432 23.296 23.296 23.296A78.72 78.72 0 0 0 960 566.976v-63.168a78.72 78.72 0 0 0-78.656-78.592zM142.656 709.632C64 709.632 0 645.632 0 566.976v-63.168c0-78.656 64-142.656 142.656-142.656 48.128 0 87.296 39.168 87.296 87.296v173.824c0 48.192-39.168 87.36-87.296 87.36z m0-284.416A78.72 78.72 0 0 0 64 503.808v63.168a78.72 78.72 0 0 0 78.656 78.656 23.296 23.296 0 0 0 23.296-23.296V448.512a23.36 23.36 0 0 0-23.296-23.296zM197.952 472.576a32 32 0 0 1-32-32v-33.6c0-182.08 144-330.24 320.96-330.24h44.032a327.488 327.488 0 0 1 327.104 327.168v33.6a32 32 0 0 1-64 0v-33.6a263.488 263.488 0 0 0-263.104-263.168h-44.096c-141.696 0-256.96 119.424-256.96 266.24v33.6a31.872 31.872 0 0 1-31.936 32zM602.944 899.264h-10.816a32 32 0 0 1 0-64h10.816c105.344 0 191.104-106.624 191.104-237.696v-22.08a32 32 0 0 1 64 0v22.08c0 166.4-114.432 301.696-255.104 301.696zM594.944 867.264m-48 0a48 48 0 1 0 96 0 48 48 0 1 0-96 0Z" fill="#272636"></path></g></g></svg>