<?xml version="1.0" encoding="utf-8"?>
<!-- Generator: Adobe Illustrator 16.0.3, SVG Export Plug-In . SVG Version: 6.00 Build 0)  -->
<!DOCTYPE svg PUBLIC "-//W3C//DTD SVG 1.1//EN" "http://www.w3.org/Graphics/SVG/1.1/DTD/svg11.dtd">
<svg version="1.1" id="Layer_1" xmlns="http://www.w3.org/2000/svg" xmlns:xlink="http://www.w3.org/1999/xlink" x="0px" y="0px"
	 width="171px" height="52px" viewBox="0 0 171 52" enable-background="new 0 0 171 52" xml:space="preserve">
<rect x="0" fill="#B72F2A" width="51.911" height="51.911"/>
<polygon fill="#FFFFFF" points="35.453,16.692 35.453,11.79 20.027,11.79 20.027,22.31 19.609,22.31 16.7,22.31 16.7,25.656 
	17.621,25.656 20.027,25.656 20.027,28.302 19.512,28.302 16.7,28.302 16.7,31.652 17.522,31.652 20.027,31.652 20.027,41.949 
	25.978,41.949 25.978,31.652 31.259,31.652 32.753,28.302 25.978,28.302 25.978,27.178 25.978,25.656 33.964,25.656 35.453,22.31 
	25.978,22.31 25.978,16.692 "/>
<g>
	<path fill="#006193" d="M78.97,20.754h5.108v16.407H78.97V20.754z M98.98,37.125v-2.309h-0.063c-1.317,1.957-3.245,2.76-5.366,2.76
		c-4.59,0-7.707-4.139-7.707-8.73c0-4.584,2.895-8.664,7.641-8.664c2.124,0,3.695,0.673,5.24,2.697h0.065V12.147v-0.43h4.62v0.43
		v24.978H98.98z M98.948,28.913c0-2.477-1.348-4.811-4.238-4.811c-2.662,0-4.046,2.375-4.046,4.877c0,2.596,1.447,4.876,4.173,4.876
		C97.47,33.855,98.948,31.674,98.948,28.913 M121.891,28.913v1.285h-12.071c0.188,1.919,1.377,3.852,3.85,3.852
		c1.418,0,2.667-0.677,3.309-1.961l4.498,0.349c-1.124,3.376-4.146,5.139-8.03,5.139c-4.981,0-8.444-3.401-8.444-8.664
		c0-5.327,3.462-8.73,8.444-8.73C118.426,20.182,121.891,23.586,121.891,28.913 M117.272,27.243
		c-0.167-1.605-1.387-3.527-3.603-3.527c-2.408,0-3.596,1.671-3.85,3.527H117.272z M123.566,12.147v24.978h4.628V12.147v-0.43
		h-4.628V12.147z M132.765,11.134c-1.544,0-2.701,1.374-2.701,2.727c0,1.281,1.156,2.659,2.701,2.659
		c1.477,0,2.692-1.316,2.692-2.723C135.457,12.319,134.145,11.134,132.765,11.134 M81.521,11.134c-1.54,0-2.696,1.374-2.696,2.727
		c0,1.281,1.156,2.659,2.696,2.659c1.481,0,2.691-1.316,2.691-2.723C84.213,12.319,82.902,11.134,81.521,11.134 M130.449,37.125
		h4.63V20.63h-4.63V37.125z M146.038,33.5c-0.281,0.063-0.537,0.098-0.929,0.098c-1.188,0-1.506-0.354-1.506-1.091v-8.348h2.435
		V20.63h-2.435v-5.16h-4.627v5.16h-2.115v3.529h2.115v8.859c0,3.561,1.831,4.301,4.849,4.301c0.744,0,1.479-0.099,2.214-0.194V33.5z
		 M151.773,41.819h4.833l7.986-21.189h-5.077l-3.501,10.913h-0.062l-3.504-10.913h-5.067l6.194,16.495L151.773,41.819z
		 M61.104,25.344v2.874h2.426v9.002h5.105v-9.002h4.82l1.277-2.874h-6.097v-1.677h6.846l1.279-2.873h-8.125v-4.819h8.125v-4.193
		h-13.23v9.012h-2.426v2.873h2.426v1.677H61.104z"/>
	<polygon fill="#006193" points="165.595,8.809 164.733,8.809 164.733,8.225 167.108,8.225 167.108,8.809 166.249,8.809 
		166.249,11.495 165.595,11.495 	"/>
	<polygon fill="#006193" points="170.251,8.227 169.304,10.453 168.355,8.227 167.611,8.227 167.611,11.499 168.233,11.499 
		168.233,9.356 168.246,9.356 169.121,11.499 169.484,11.499 170.366,9.313 170.373,9.313 170.373,11.499 170.999,11.499 
		170.999,8.227 	"/>
	<rect x="63.53" y="45.996" fill="#006193" width="1.409" height="5.802"/>
	<polygon fill="#006193" points="70.062,51.798 68.652,51.798 68.652,45.996 70.062,45.996 72.175,49.259 72.175,45.996 
		73.583,45.996 73.583,51.798 72.175,51.798 70.062,48.492 	"/>
	<polygon fill="#006193" points="79.503,51.798 78.095,51.798 78.095,47.135 76.755,47.135 76.755,45.996 80.834,45.996 
		80.834,47.135 79.503,47.135 	"/>
	<polygon fill="#006193" points="85.285,48.319 87.199,48.319 87.199,49.458 85.285,49.458 85.285,50.659 87.199,50.659 
		87.199,51.798 83.876,51.798 83.876,45.997 87.199,45.997 87.199,47.137 85.285,47.137 	"/>
	<path fill="#006193" d="M92.145,51.797h-1.409v-5.801h1.879c0.764,0,1.322,0.141,1.705,0.436c0.401,0.311,0.626,0.836,0.626,1.469
		c0,0.879-0.374,1.47-1.124,1.766l1.279,2.13h-1.687l-1.27-2.244V51.797z M92.598,48.763c0.581,0,0.921-0.295,0.921-0.799
		c0-0.488-0.33-0.81-0.835-0.81h-0.539v1.609H92.598z"/>
	<polygon fill="#006193" points="99.986,51.798 98.578,51.798 98.578,45.996 99.986,45.996 102.101,49.259 102.101,45.996 
		103.509,45.996 103.509,51.798 102.101,51.798 99.986,48.492 	"/>
	<path fill="#006193" d="M108.375,50.962l-0.254,0.835h-1.502l1.913-5.801h1.792l1.905,5.801h-1.547l-0.254-0.835H108.375z
		 M109.4,47.659l-0.677,2.164h1.357L109.4,47.659z"/>
	<polygon fill="#006193" points="117.332,51.798 115.923,51.798 115.923,47.135 114.583,47.135 114.583,45.996 118.663,45.996 
		118.663,47.135 117.332,47.135 	"/>
	<rect x="122.4" y="45.996" fill="#006193" width="1.41" height="5.802"/>
	<path fill="#006193" d="M133.205,48.91c0,1.661-1.354,3.001-3.034,3.001c-1.732,0-3.104-1.323-3.104-2.992
		c0-0.844,0.339-1.626,0.974-2.227c0.556-0.522,1.313-0.809,2.164-0.809C131.919,45.884,133.205,47.181,133.205,48.91
		 M128.501,48.902c0,0.956,0.721,1.703,1.643,1.703c0.904,0,1.636-0.748,1.636-1.677c0-0.992-0.697-1.74-1.628-1.74
		C129.205,47.188,128.501,47.918,128.501,48.902"/>
	<polygon fill="#006193" points="137.701,51.798 136.292,51.798 136.292,45.996 137.701,45.996 139.814,49.259 139.814,45.996 
		141.223,45.996 141.223,51.798 139.814,51.798 137.701,48.492 	"/>
	<path fill="#006193" d="M146.152,50.962l-0.252,0.835h-1.505l1.914-5.801h1.792l1.903,5.801h-1.547l-0.252-0.835H146.152z
		 M147.179,47.659l-0.679,2.164h1.355L147.179,47.659z"/>
	<polygon fill="#006193" points="156.455,50.659 156.455,51.798 153.159,51.798 153.159,45.996 154.569,45.996 154.569,50.659 	"/>
</g>
</svg>
