<?xml version="1.0" encoding="utf-8"?>
<!-- Generator: Adobe Illustrator 16.0.3, SVG Export Plug-In . SVG Version: 6.00 Build 0)  -->
<!DOCTYPE svg PUBLIC "-//W3C//DTD SVG 1.1//EN" "http://www.w3.org/Graphics/SVG/1.1/DTD/svg11.dtd">
<svg version="1.1" id="Layer_1" xmlns="http://www.w3.org/2000/svg" xmlns:xlink="http://www.w3.org/1999/xlink" x="0px" y="0px"
	 width="171px" height="52px" viewBox="0 0 171 52" enable-background="new 0 0 171 52" xml:space="preserve">
<rect fill="#B72F2A" width="51.911" height="51.911"/>
<polygon fill="#FFFFFF" points="35.453,16.692 35.453,11.79 20.027,11.79 20.027,22.31 19.609,22.31 16.7,22.31 16.7,25.656 
	17.621,25.656 20.027,25.656 20.027,28.302 19.512,28.302 16.7,28.302 16.7,31.652 17.522,31.652 20.027,31.652 20.027,41.949 
	25.978,41.949 25.978,31.652 31.259,31.652 32.753,28.302 25.978,28.302 25.978,27.178 25.978,25.656 33.964,25.656 35.453,22.31 
	25.978,22.31 25.978,16.692 "/>
<g>
	<path fill="#006193" d="M78.97,20.754h5.108v16.407H78.97V20.754z M98.98,37.125v-2.309h-0.063c-1.317,1.957-3.245,2.76-5.366,2.76
		c-4.59,0-7.707-4.139-7.707-8.73c0-4.583,2.894-8.664,7.64-8.664c2.125,0,3.695,0.673,5.24,2.697h0.065V12.147v-0.43h4.62v0.43
		v24.978H98.98z M98.948,28.913c0-2.477-1.349-4.811-4.238-4.811c-2.662,0-4.046,2.375-4.046,4.876c0,2.597,1.447,4.877,4.173,4.877
		C97.471,33.855,98.948,31.674,98.948,28.913 M121.891,28.913v1.285h-12.07c0.188,1.919,1.377,3.852,3.85,3.852
		c1.418,0,2.667-0.677,3.309-1.961l4.498,0.349c-1.123,3.377-4.146,5.14-8.029,5.14c-4.981,0-8.444-3.401-8.444-8.664
		c0-5.327,3.462-8.73,8.444-8.73C118.426,20.182,121.891,23.586,121.891,28.913 M117.271,27.243
		c-0.166-1.605-1.387-3.527-3.603-3.527c-2.407,0-3.596,1.671-3.851,3.527H117.271z M123.566,12.147v24.978h4.627V12.147v-0.43
		h-4.627V12.147z M132.766,11.134c-1.545,0-2.701,1.374-2.701,2.727c0,1.281,1.156,2.659,2.701,2.659
		c1.477,0,2.691-1.316,2.691-2.723C135.457,12.319,134.145,11.134,132.766,11.134 M81.521,11.134c-1.54,0-2.696,1.374-2.696,2.727
		c0,1.281,1.156,2.659,2.696,2.659c1.481,0,2.691-1.316,2.691-2.723C84.213,12.319,82.902,11.134,81.521,11.134 M130.449,37.125
		h4.63V20.63h-4.63V37.125z M146.038,33.5c-0.281,0.063-0.537,0.098-0.929,0.098c-1.188,0-1.506-0.354-1.506-1.091v-8.348h2.435
		V20.63h-2.435v-5.16h-4.627v5.16h-2.115v3.529h2.115v8.858c0,3.562,1.83,4.301,4.849,4.301c0.743,0,1.479-0.098,2.214-0.193
		L146.038,33.5L146.038,33.5z M151.773,41.818h4.832l7.986-21.188h-5.076l-3.502,10.913h-0.062l-3.505-10.913h-5.066l6.194,16.495
		L151.773,41.818z M61.104,25.344v2.874h2.426v9.003h5.105v-9.003h4.82l1.277-2.874h-6.097v-1.677h6.846l1.279-2.873h-8.125v-4.819
		h8.125v-4.193H63.53v9.012h-2.426v2.873h2.426v1.677H61.104z"/>
	<polygon fill="#006193" points="165.596,8.809 164.732,8.809 164.732,8.225 167.107,8.225 167.107,8.809 166.249,8.809 
		166.249,11.495 165.596,11.495 	"/>
	<polygon fill="#006193" points="170.251,8.227 169.305,10.453 168.355,8.227 167.611,8.227 167.611,11.499 168.232,11.499 
		168.232,9.356 168.246,9.356 169.121,11.499 169.484,11.499 170.366,9.313 170.373,9.313 170.373,11.499 170.999,11.499 
		170.999,8.227 	"/>
	<g>
		<rect x="63.53" y="45.996" fill="#006193" width="1.409" height="5.802"/>
		<polygon fill="#006193" points="70.062,51.798 68.652,51.798 68.652,45.996 70.062,45.996 72.175,49.259 72.175,45.996 
			73.583,45.996 73.583,51.798 72.175,51.798 70.062,48.492 		"/>
		<polygon fill="#006193" points="79.503,51.798 78.095,51.798 78.095,47.135 76.755,47.135 76.755,45.996 80.834,45.996 
			80.834,47.135 79.503,47.135 		"/>
		<polygon fill="#006193" points="85.285,48.318 87.199,48.318 87.199,49.458 85.285,49.458 85.285,50.659 87.199,50.659 
			87.199,51.798 83.876,51.798 83.876,45.997 87.199,45.997 87.199,47.137 85.285,47.137 		"/>
		<path fill="#006193" d="M92.145,51.797h-1.408v-5.801h1.879c0.764,0,1.322,0.141,1.705,0.436c0.4,0.312,0.625,0.836,0.625,1.469
			c0,0.879-0.373,1.471-1.123,1.767l1.279,2.13h-1.688l-1.27-2.244V51.797L92.145,51.797z M92.598,48.764
			c0.582,0,0.922-0.296,0.922-0.8c0-0.487-0.33-0.81-0.836-0.81h-0.539v1.609H92.598z"/>
		<polygon fill="#006193" points="99.986,51.798 98.578,51.798 98.578,45.996 99.986,45.996 102.102,49.259 102.102,45.996 
			103.509,45.996 103.509,51.798 102.102,51.798 99.986,48.492 		"/>
		<path fill="#006193" d="M108.375,50.962l-0.254,0.835h-1.502l1.913-5.801h1.792l1.904,5.801h-1.547l-0.254-0.835H108.375z
			 M109.4,47.659l-0.678,2.164h1.357L109.4,47.659z"/>
		<polygon fill="#006193" points="117.332,51.798 115.923,51.798 115.923,47.135 114.583,47.135 114.583,45.996 118.663,45.996 
			118.663,47.135 117.332,47.135 		"/>
		<rect x="122.4" y="45.996" fill="#006193" width="1.41" height="5.802"/>
		<path fill="#006193" d="M133.205,48.91c0,1.66-1.354,3.001-3.034,3.001c-1.731,0-3.104-1.323-3.104-2.992
			c0-0.844,0.34-1.626,0.975-2.228c0.557-0.521,1.313-0.809,2.164-0.809C131.919,45.884,133.205,47.182,133.205,48.91
			 M128.501,48.902c0,0.955,0.722,1.703,1.644,1.703c0.903,0,1.635-0.748,1.635-1.678c0-0.992-0.696-1.74-1.627-1.74
			C129.205,47.188,128.501,47.918,128.501,48.902"/>
		<polygon fill="#006193" points="137.701,51.798 136.292,51.798 136.292,45.996 137.701,45.996 139.814,49.259 139.814,45.996 
			141.223,45.996 141.223,51.798 139.814,51.798 137.701,48.492 		"/>
		<path fill="#006193" d="M146.152,50.962l-0.252,0.835h-1.506l1.914-5.801h1.793l1.902,5.801h-1.547l-0.252-0.835H146.152z
			 M147.18,47.659l-0.68,2.164h1.355L147.18,47.659z"/>
		<polygon fill="#006193" points="156.455,50.659 156.455,51.798 153.159,51.798 153.159,45.996 154.568,45.996 154.568,50.659 		
			"/>
	</g>
</g>
</svg>
