<?xml version="1.0" encoding="utf-8"?>
<!-- Generator: Adobe Illustrator 16.0.3, SVG Export Plug-In . SVG Version: 6.00 Build 0)  -->
<!DOCTYPE svg PUBLIC "-//W3C//DTD SVG 1.1//EN" "http://www.w3.org/Graphics/SVG/1.1/DTD/svg11.dtd">
<svg version="1.1" id="Layer_1" xmlns="http://www.w3.org/2000/svg" xmlns:xlink="http://www.w3.org/1999/xlink" x="0px" y="0px"
	 width="40px" height="40px" viewBox="0 0 40 40" enable-background="new 0 0 40 40" xml:space="preserve">
<rect x="0" fill="#B72F2A" width="40" height="40"/>
<polygon fill="#FFFFFF" points="27.318,12.862 27.318,9.085 15.432,9.085 15.432,17.191 15.109,17.191 12.868,17.191 12.868,19.77 
	13.578,19.77 15.432,19.77 15.432,21.808 15.035,21.808 12.868,21.808 12.868,24.39 13.502,24.39 15.432,24.39 15.432,32.324 
	20.017,32.324 20.017,24.39 24.086,24.39 25.238,21.808 20.017,21.808 20.017,20.942 20.017,19.77 26.171,19.77 27.318,17.191 
	20.017,17.191 20.017,12.862 "/>
</svg>
