<?xml version="1.0" encoding="UTF-8"?>
<svg width="25" height="25" version="1.1" viewBox="2.49023 -49.9805 25.0195 24.9902" xmlns="http://www.w3.org/2000/svg" xmlns:xlink="http://www.w3.org/1999/xlink">
    <!--Generated by IJSVG (https://github.com/curthard89/IJSVG)-->
    <g fill="#000000">
        <path d="M12.5098,0c-1.71875,0 -3.33984,0.327149 -4.86328,0.981446c-1.52344,0.654296 -2.85156,1.54785 -3.98437,2.68066c-1.13281,1.13281 -2.02637,2.45605 -2.68066,3.96973c-0.654297,1.51367 -0.981446,3.12988 -0.981446,4.84863c0,1.73828 0.327149,3.36426 0.981446,4.87793c0.654297,1.51367 1.54785,2.83691 2.68066,3.96973c1.13281,1.13281 2.46094,2.02637 3.98437,2.68066c1.52344,0.654297 3.14453,0.981446 4.86328,0.981446c1.71875,0 3.33984,-0.327149 4.86328,-0.981446c1.52344,-0.654297 2.85156,-1.54785 3.98438,-2.68066c1.13281,-1.13281 2.02637,-2.45605 2.68066,-3.96973c0.654297,-1.51367 0.981446,-3.13965 0.981446,-4.87793c0,-1.71875 -0.327149,-3.33496 -0.981446,-4.84863c-0.654297,-1.51367 -1.54785,-2.83691 -2.68066,-3.96973c-1.13281,-1.13281 -2.46094,-2.02637 -3.98438,-2.68066c-1.52344,-0.654297 -3.14453,-0.981446 -4.86328,-0.981446Zm0,23.7305c-1.54297,0 -2.99805,-0.292969 -4.36523,-0.878906c-1.36719,-0.585938 -2.56348,-1.38672 -3.58887,-2.40234c-1.02539,-1.01562 -1.83105,-2.20703 -2.41699,-3.57422c-0.585937,-1.36719 -0.878906,-2.83203 -0.878906,-4.39453c0,-1.54297 0.292969,-2.99805 0.878906,-4.36523c0.585938,-1.36719 1.3916,-2.55859 2.41699,-3.57422c1.02539,-1.01562 2.22168,-1.82129 3.58887,-2.41699c1.36719,-0.595703 2.82226,-0.893555 4.36523,-0.893555c1.54297,0 2.99805,0.297852 4.36523,0.893555c1.36719,0.595703 2.56348,1.40137 3.58887,2.41699c1.02539,1.01562 1.83105,2.20703 2.41699,3.57422c0.585937,1.36719 0.878906,2.82227 0.878906,4.36523c0,1.5625 -0.292969,3.02734 -0.878906,4.39453c-0.585938,1.36719 -1.3916,2.55859 -2.41699,3.57422c-1.02539,1.01562 -2.22168,1.81641 -3.58887,2.40234c-1.36719,0.585937 -2.82227,0.878906 -4.36523,0.878906Zm6.24023,-11.25c0,0.117188 -0.024414,0.224609 -0.073242,0.322266c-0.048828,0.097656 -0.12207,0.175781 -0.219726,0.234375l-8.75977,5.00977c-0.058594,0.019532 -0.112305,0.03418 -0.161133,0.043946c-0.048828,0.009765 -0.102539,0.014648 -0.161133,0.014648c-0.039062,0 -0.08789,-0.004883 -0.146484,-0.014648c-0.058594,-0.009766 -0.107422,-0.03418 -0.146484,-0.073243c-0.097657,-0.039062 -0.175782,-0.107421 -0.234375,-0.205078c-0.058594,-0.097656 -0.087891,-0.205078 -0.087891,-0.322265v-9.99023c0,-0.117187 0.029297,-0.224609 0.087891,-0.322265c0.058593,-0.097657 0.136718,-0.175782 0.234375,-0.234375c0.097656,-0.058594 0.200195,-0.087891 0.307617,-0.087891c0.107422,0 0.209961,0.029297 0.307617,0.087891l8.75977,5.00977c0.097656,0.058594 0.170898,0.136719 0.219726,0.234375c0.048828,0.097657 0.073242,0.195313 0.073242,0.292969Z" transform="translate(2.49023, -49.9805)"></path>
    </g>
</svg>